MomentArm_ankle_angle_r
version=1
nRows=9
nColumns=3
inDegrees=no

This analysis gathers basic information about muscles during a simulation (e.g., forces, tendon lengths, moment arms, etc).
Units are S.I. units (second, meters, Newtons, ...)
If the header above contains a line with 'inDegrees', this indicates whether rotational values are in degrees (yes) or radians (no).

endheader
time	soleus_r	tib_ant_r
      0.00000000	     -0.02033362	      0.01445473
      0.01000000	     -0.03595867	      0.02314531
      0.02000000	     -0.04540021	      0.03094463
      0.03000000	     -0.04827946	      0.03743182
      0.04000000	     -0.04534547	      0.04199575
      0.05000000	     -0.03777882	      0.04339233
      0.06000000	     -0.02682693	      0.03810633
      0.07000000	     -0.01368425	      0.01644036
      0.08000000	      0.00051684	     -0.02007489
